# Blender v2.74 (sub 0) OBJ File: ''
# www.blender.org
mtllib arrow.mtl
o Cone
v -0.500000 0.000000 1.538461
v -0.500000 -0.000000 -0.461539
v 0.000000 -0.500000 1.538461
v -0.000000 -0.500000 -0.461539
v 0.500000 0.000000 1.538461
v 0.500000 0.000000 -0.461539
v 0.000000 0.500000 1.538461
v -0.000000 0.500000 -0.461539
v -1.000000 -0.000000 -0.461539
v 0.000000 -1.000000 -0.461539
v 1.000000 0.000000 -0.461539
v -0.000000 -0.000000 -2.461539
v -0.000000 1.000000 -0.461539
vt 0.714286 0.847918
vt 0.571429 0.847918
vt 0.571429 0.423959
vt 0.857143 0.423959
vt 0.714286 0.423959
vt 0.714286 0.000000
vt 0.571429 0.000000
vt 0.857143 0.847918
vt 0.714286 1.000000
vt 0.571429 1.000000
vt 0.000000 0.899353
vt 0.142857 0.449676
vt 0.285714 0.899352
vt 0.285714 0.449676
vt 0.428571 0.000000
vt 0.571429 0.449676
vt 0.000000 0.449676
vt 0.142857 0.000000
vt 0.428571 0.449676
vt 0.571429 0.899352
vt 0.992669 0.096185
vt 0.947494 0.240463
vt 0.857143 0.288556
vt 0.928572 0.896885
vt 0.857143 0.820844
vt 0.857143 0.668761
vt 0.857143 0.516679
vt 0.857143 0.364597
vt 0.928572 0.288556
vt 0.928571 0.516679
vt 0.928571 0.364597
vt 1.000000 0.288556
vt 0.857143 0.000000
vt 0.947494 0.000000
vt 0.928571 0.592720
vt 1.000000 0.592720
vn -0.707100 -0.707100 0.000000
vn 0.707100 -0.707100 0.000000
vn -0.707100 0.707100 -0.000000
vn 0.707100 0.707100 -0.000000
vn -0.000000 0.000000 1.000000
vn 0.666700 0.666700 -0.333300
vn -0.666700 -0.666700 -0.333300
vn -0.666700 0.666700 -0.333300
vn 0.666700 -0.666700 -0.333300
usemtl None
s off
f 2/1/1 4/2/1 3/3/1
f 4/4/2 6/5/2 5/6/2
f 8/5/3 2/3/3 1/7/3
f 6/8/4 8/1/4 7/5/4
f 3/1/5 5/9/5 7/10/5
f 11/11/6 12/12/6 13/13/6
f 9/14/7 12/15/7 10/16/7
f 13/17/8 12/18/8 9/14/8
f 10/13/9 12/19/9 11/20/9
f 6/21/5 4/22/5 10/23/5
f 10/24/5 4/25/5 2/26/5
f 2/27/5 8/28/5 13/29/5
f 8/30/5 6/31/5 11/32/5
f 1/5/1 2/1/1 3/3/1
f 3/33/2 4/4/2 5/6/2
f 7/6/3 8/5/3 1/7/3
f 5/4/4 6/8/4 7/5/4
f 1/2/5 3/1/5 7/10/5
f 11/34/5 6/21/5 10/23/5
f 9/35/5 10/24/5 2/26/5
f 9/35/5 2/27/5 13/29/5
f 13/36/5 8/30/5 11/32/5
