# Blender v2.74 (sub 0) OBJ File: ''
# www.blender.org
mtllib cube.mtl
o Cube
v 0.500000 -0.500000 -0.500000
v 0.500000 -0.500000 0.500000
v -0.500000 -0.500000 0.500000
v -0.500000 -0.500000 -0.500000
v 0.500000 0.500000 -0.500000
v 0.500000 0.500000 0.500000
v -0.500000 0.500000 0.500000
v -0.500000 0.500000 -0.500000
vt 0.000599 0.999401
vt 0.000599 0.000600
vt 0.999401 0.000600
vt 0.999400 0.999401
vn 0.000000 -1.000000 0.000000
vn 0.000000 1.000000 0.000000
vn 1.000000 0.000000 0.000000
vn -0.000000 0.000000 1.000000
vn -1.000000 -0.000000 -0.000000
vn 0.000000 0.000000 -1.000000
usemtl Material
s off
f 2/1/1 3/2/1 4/3/1
f 8/1/2 7/2/2 6/3/2
f 5/4/3 6/1/3 2/2/3
f 6/4/4 7/1/4 3/2/4
f 3/1/5 7/2/5 8/3/5
f 1/4/6 4/1/6 8/2/6
f 1/4/1 2/1/1 4/3/1
f 5/4/2 8/1/2 6/3/2
f 1/3/3 5/4/3 2/2/3
f 2/3/4 6/4/4 3/2/4
f 4/4/5 3/1/5 8/3/5
f 5/3/6 1/4/6 8/2/6
